# xmcd
#
# Track frame offsets: 
#        150
#        13092
#        26751
#        44509
#        56705
#        65391
#        82309
#        94568
#        107005
#
# Disc length: 1546 seconds
#
# Revision: 0
# Processed by: cddbd v1.5.2PL0 Copyright (c) Steve Scherf et al.
# Submitted via: ExactAudioCopyFreeDBPlugin 1.0
#
DISCID=76060809
DTITLE=Various Artist - Country Gosple
DYEAR=1900
DGENRE=
TTITLE0=Oak Ridge Boys - In The Shelter Of His Arms
TTITLE1=Jeanne Pruett - Uncloudy Day
TTITLE2=Jack Greene - Oh Happy Day
TTITLE3=Johnny Tillotson - Joy to the World
TTITLE4=Oak Ridge Boys - Day of Rejoicing
TTITLE5=Blackwood Brothers - Because He Lives
TTITLE6=Oak Ridge Boys - On the Sunny Banks
TTITLE7=Jeanne Pruett - You Dont Need To Move A Mountain
TTITLE8=Jack Greene - A Wonderful Time Up There
EXTD=
EXTT0=
EXTT1=
EXTT2=
EXTT3=
EXTT4=
EXTT5=
EXTT6=
EXTT7=
EXTT8=
PLAYORDER=
